<svg width="136.48mm" height="183.32mm" viewBox="0 0 136.48 183.32" xmlns="http://www.w3.org/2000/svg" version="1.1" preserveAspectRatio="xMidYMid meet"><g id="svgGroup" stroke-linecap="round" fill-rule="evenodd" font-size="9pt" stroke="#000" stroke-width="0.25mm" fill="none" style="stroke:#000;stroke-width:0.25mm;fill:none"><path d="M 55.16 183.273 L 55.16 152.069 L 55.113 152.022 L 52.66 152.022 L 52.66 124.458 L 55.113 124.458 L 55.16 124.411 L 55.16 93.207 L 55.113 93.16 L 0.047 93.16 L 0 93.207 L 0 124.411 L 0.047 124.458 L 2.5 124.458 L 2.5 152.022 L 0.047 152.022 L 0 152.069 L 0 183.273 L 0.047 183.32 L 55.113 183.32 L 55.16 183.273 Z" id="front_outsideCutPath" stroke="#FF0000" stroke-width="0.1" style="stroke:#FF0000;stroke-width:0.1" vector-effect="non-scaling-stroke"/><path d="M 35.62 142.407 L 34.725 142.407 L 34.725 138.587 Q 34.725 138.127 34.592 137.816 A 1.064 1.064 0 0 0 34.397 137.51 Q 34.068 137.154 33.368 137.154 A 2.706 2.706 0 0 0 32.862 137.199 Q 32.58 137.252 32.362 137.372 A 1.261 1.261 0 0 0 32.011 137.655 A 1.462 1.462 0 0 0 31.756 138.1 Q 31.603 138.507 31.583 139.115 A 5.729 5.729 0 0 0 31.58 139.309 L 31.58 142.407 L 30.685 142.407 L 30.685 136.503 L 31.413 136.503 L 31.558 137.311 L 31.601 137.311 A 1.811 1.811 0 0 1 32.31 136.665 A 2.177 2.177 0 0 1 32.371 136.635 A 2.421 2.421 0 0 1 33.233 136.405 A 2.928 2.928 0 0 1 33.476 136.395 Q 34.542 136.395 35.081 136.909 Q 35.491 137.301 35.589 138.049 A 3.902 3.902 0 0 1 35.62 138.555 L 35.62 142.407 Z M 18.441 136.503 L 18.441 137.198 L 16.939 137.198 L 16.939 142.407 L 16.044 142.407 L 16.044 137.198 L 14.989 137.198 L 14.989 136.794 L 16.044 136.47 L 16.044 136.142 A 3.624 3.624 0 0 1 16.129 135.32 Q 16.391 134.2 17.461 134.006 A 2.718 2.718 0 0 1 17.946 133.966 A 2.88 2.88 0 0 1 18.353 133.997 Q 18.552 134.025 18.772 134.079 A 5.788 5.788 0 0 1 19.045 134.154 L 18.813 134.87 Q 18.446 134.752 18.155 134.718 A 1.923 1.923 0 0 0 17.93 134.704 A 1.206 1.206 0 0 0 17.639 134.736 A 0.774 0.774 0 0 0 17.181 135.04 A 1.035 1.035 0 0 0 17.044 135.316 Q 16.953 135.585 16.941 135.986 A 4.222 4.222 0 0 0 16.939 136.12 L 16.939 136.503 L 18.441 136.503 Z M 40.171 141.669 L 40.171 142.353 A 0.88 0.88 0 0 1 40.067 142.394 Q 39.938 142.437 39.743 142.468 Q 39.479 142.511 39.264 142.514 A 2.291 2.291 0 0 1 39.234 142.514 Q 37.521 142.514 37.521 140.71 L 37.521 137.198 L 36.675 137.198 L 36.675 136.767 L 37.521 136.395 L 37.898 135.134 L 38.415 135.134 L 38.415 136.503 L 40.128 136.503 L 40.128 137.198 L 38.415 137.198 L 38.415 140.672 A 1.801 1.801 0 0 0 38.441 140.988 Q 38.472 141.162 38.54 141.299 A 0.867 0.867 0 0 0 38.669 141.491 A 0.831 0.831 0 0 0 39.179 141.763 A 1.195 1.195 0 0 0 39.363 141.776 Q 39.6 141.776 39.821 141.741 Q 40.032 141.708 40.159 141.672 A 1.344 1.344 0 0 0 40.171 141.669 Z M 22.918 136.46 L 22.794 137.289 A 3.941 3.941 0 0 0 22.511 137.237 Q 22.369 137.216 22.243 137.211 A 2.097 2.097 0 0 0 22.147 137.208 A 1.549 1.549 0 0 0 21.003 137.703 A 2.12 2.12 0 0 0 20.922 137.79 Q 20.413 138.372 20.413 139.239 L 20.413 142.407 L 19.519 142.407 L 19.519 136.503 L 20.257 136.503 L 20.359 137.596 L 20.402 137.596 A 3.02 3.02 0 0 1 20.74 137.114 A 2.307 2.307 0 0 1 21.194 136.707 A 1.783 1.783 0 0 1 22.212 136.395 A 4.105 4.105 0 0 1 22.58 136.411 A 2.996 2.996 0 0 1 22.918 136.46 Z M 28.391 141.704 A 2.494 2.494 0 0 0 28.688 141.295 Q 29.118 140.56 29.118 139.449 A 5.248 5.248 0 0 0 29.116 139.307 Q 29.081 138.001 28.388 137.219 A 2.341 2.341 0 0 0 27.301 136.518 A 3.005 3.005 0 0 0 26.419 136.395 A 3.473 3.473 0 0 0 25.795 136.448 A 2.365 2.365 0 0 0 24.415 137.2 Q 23.936 137.735 23.775 138.551 A 4.643 4.643 0 0 0 23.693 139.449 A 4.473 4.473 0 0 0 23.75 140.174 A 3.308 3.308 0 0 0 24.027 141.076 A 2.939 2.939 0 0 0 24.093 141.203 A 2.421 2.421 0 0 0 24.976 142.143 A 2.49 2.49 0 0 0 25.547 142.397 A 2.872 2.872 0 0 0 26.381 142.514 Q 27.663 142.514 28.391 141.704 Z M 24.811 140.69 A 1.876 1.876 0 0 0 25.072 141.173 Q 25.525 141.765 26.403 141.765 A 2.077 2.077 0 0 0 26.951 141.697 A 1.445 1.445 0 0 0 27.736 141.176 A 1.92 1.92 0 0 0 28.035 140.593 Q 28.123 140.324 28.161 139.996 A 4.71 4.71 0 0 0 28.191 139.449 Q 28.191 138.323 27.736 137.739 A 1.471 1.471 0 0 0 26.822 137.193 A 2.255 2.255 0 0 0 26.392 137.154 A 2.128 2.128 0 0 0 25.862 137.217 A 1.424 1.424 0 0 0 25.067 137.731 A 1.849 1.849 0 0 0 24.78 138.286 Q 24.62 138.767 24.62 139.449 Q 24.62 140.183 24.811 140.69 Z" id="front_labelLayer" stroke="#777777" fill="#777777" style="stroke:#777777;fill:#777777" vector-effect="non-scaling-stroke"/><path d="M 80.82 183.273 L 80.82 152.182 L 83.273 152.182 L 83.32 152.135 L 83.32 124.345 L 83.273 124.298 L 80.82 124.298 L 80.82 93.207 L 80.773 93.16 L 60.707 93.16 L 60.66 93.207 L 60.66 124.298 L 58.207 124.298 L 58.16 124.345 L 58.16 152.135 L 58.207 152.182 L 60.66 152.182 L 60.66 183.273 L 60.707 183.32 L 80.773 183.32 L 80.82 183.273 Z" id="left_outsideCutPath" stroke="#FF0000" stroke-width="0.1" style="stroke:#FF0000;stroke-width:0.1" vector-effect="non-scaling-stroke"/><path d="M 72.53 137.448 L 72.53 137.765 L 71.844 137.765 L 71.844 140.14 L 71.437 140.14 L 71.437 137.765 L 70.955 137.765 L 70.955 137.58 L 71.437 137.433 L 71.437 137.283 A 1.653 1.653 0 0 1 71.475 136.908 Q 71.595 136.397 72.083 136.309 A 1.24 1.24 0 0 1 72.304 136.29 A 1.313 1.313 0 0 1 72.49 136.304 Q 72.634 136.325 72.805 136.376 L 72.699 136.703 Q 72.532 136.649 72.399 136.633 A 0.877 0.877 0 0 0 72.297 136.627 Q 72.066 136.627 71.955 136.78 A 0.472 0.472 0 0 0 71.893 136.906 Q 71.851 137.029 71.845 137.212 A 1.926 1.926 0 0 0 71.844 137.273 L 71.844 137.448 L 72.53 137.448 Z M 70.621 138.61 L 70.621 138.868 L 68.766 138.868 A 1.637 1.637 0 0 0 68.794 139.142 Q 68.824 139.291 68.883 139.409 A 0.766 0.766 0 0 0 69.005 139.588 A 0.741 0.741 0 0 0 69.394 139.807 A 1.123 1.123 0 0 0 69.645 139.833 A 2.154 2.154 0 0 0 70.452 139.674 A 2.468 2.468 0 0 0 70.505 139.652 L 70.505 140.015 A 2.449 2.449 0 0 1 70.282 140.099 A 1.872 1.872 0 0 1 70.096 140.149 A 1.712 1.712 0 0 1 69.926 140.175 Q 69.793 140.19 69.631 140.19 A 1.585 1.585 0 0 1 69.234 140.143 A 1.122 1.122 0 0 1 68.688 139.826 Q 68.363 139.483 68.344 138.89 A 2.33 2.33 0 0 1 68.343 138.816 Q 68.343 138.165 68.664 137.782 A 1.045 1.045 0 0 1 69.426 137.402 A 1.442 1.442 0 0 1 69.525 137.398 A 1.243 1.243 0 0 1 69.875 137.445 A 0.946 0.946 0 0 1 70.326 137.731 A 1.14 1.14 0 0 1 70.584 138.252 A 1.66 1.66 0 0 1 70.621 138.61 Z M 74.26 139.804 L 74.26 140.116 A 0.401 0.401 0 0 1 74.212 140.135 Q 74.153 140.154 74.064 140.169 A 1.768 1.768 0 0 1 73.949 140.184 Q 73.895 140.189 73.846 140.19 A 1.047 1.047 0 0 1 73.832 140.19 Q 73.209 140.19 73.083 139.666 A 1.282 1.282 0 0 1 73.051 139.366 L 73.051 137.765 L 72.665 137.765 L 72.665 137.568 L 73.051 137.398 L 73.223 136.823 L 73.459 136.823 L 73.459 137.448 L 74.24 137.448 L 74.24 137.765 L 73.459 137.765 L 73.459 139.349 A 0.821 0.821 0 0 0 73.471 139.494 Q 73.496 139.634 73.574 139.723 A 0.379 0.379 0 0 0 73.807 139.847 A 0.545 0.545 0 0 0 73.891 139.853 Q 73.999 139.853 74.1 139.837 A 2.206 2.206 0 0 0 74.159 139.827 Q 74.215 139.816 74.254 139.805 A 0.609 0.609 0 0 0 74.26 139.804 Z M 67.628 136.317 L 67.628 140.14 L 67.22 140.14 L 67.22 136.317 L 67.628 136.317 Z M 68.776 138.536 L 70.183 138.536 A 1.39 1.39 0 0 0 70.167 138.313 Q 70.13 138.086 70.011 137.945 Q 69.839 137.74 69.52 137.74 A 0.804 0.804 0 0 0 69.288 137.772 A 0.621 0.621 0 0 0 69.003 137.951 A 0.806 0.806 0 0 0 68.843 138.222 Q 68.792 138.361 68.776 138.536 Z" id="left_labelLayer" stroke="#777777" fill="#777777" style="stroke:#777777;fill:#777777" vector-effect="non-scaling-stroke"/><path d="M 136.48 183.273 L 136.48 163.207 L 136.433 163.16 L 86.367 163.16 L 86.32 163.207 L 86.32 183.273 L 86.367 183.32 L 136.433 183.32 L 136.48 183.273 Z" id="top_outsideCutPath" stroke="#FF0000" stroke-width="0.1" style="stroke:#FF0000;stroke-width:0.1" vector-effect="non-scaling-stroke"/><path d="M 112.849 173.807 L 112.825 173.807 A 3.093 3.093 0 0 1 112.846 174.036 A 2.592 2.592 0 0 1 112.849 174.165 L 112.849 175.053 L 112.522 175.053 L 112.522 171.927 L 112.788 171.927 L 112.833 172.222 L 112.849 172.222 A 0.88 0.88 0 0 1 112.976 172.078 A 0.68 0.68 0 0 1 113.142 171.966 A 0.818 0.818 0 0 1 113.377 171.898 A 1.059 1.059 0 0 1 113.526 171.887 A 1.002 1.002 0 0 1 113.809 171.925 A 0.74 0.74 0 0 1 114.189 172.181 A 0.981 0.981 0 0 1 114.356 172.508 Q 114.422 172.722 114.422 173.004 A 1.916 1.916 0 0 1 114.397 173.326 Q 114.367 173.498 114.304 173.636 A 0.919 0.919 0 0 1 114.185 173.83 A 0.774 0.774 0 0 1 113.635 174.119 A 1.108 1.108 0 0 1 113.526 174.124 A 0.991 0.991 0 0 1 113.277 174.094 A 0.863 0.863 0 0 1 113.141 174.046 Q 112.967 173.968 112.849 173.807 Z M 109.656 173.815 L 109.656 174.065 A 0.321 0.321 0 0 1 109.618 174.08 Q 109.577 174.094 109.519 174.104 A 1.222 1.222 0 0 1 109.499 174.107 Q 109.396 174.124 109.313 174.124 A 0.854 0.854 0 0 1 109.062 174.09 Q 108.687 173.975 108.687 173.464 L 108.687 172.181 L 108.378 172.181 L 108.378 172.023 L 108.687 171.887 L 108.825 171.427 L 109.014 171.427 L 109.014 171.927 L 109.64 171.927 L 109.64 172.181 L 109.014 172.181 L 109.014 173.451 A 0.658 0.658 0 0 0 109.023 173.566 Q 109.035 173.63 109.06 173.68 A 0.317 0.317 0 0 0 109.106 173.75 A 0.304 0.304 0 0 0 109.293 173.849 A 0.437 0.437 0 0 0 109.36 173.854 A 1.073 1.073 0 0 0 109.518 173.843 A 0.989 0.989 0 0 0 109.528 173.841 Q 109.605 173.829 109.651 173.816 A 0.493 0.493 0 0 0 109.656 173.815 Z M 111.919 173.332 A 1.688 1.688 0 0 0 111.949 173.004 Q 111.949 172.794 111.905 172.62 A 1.018 1.018 0 0 0 111.682 172.189 A 0.856 0.856 0 0 0 111.285 171.933 A 1.098 1.098 0 0 0 110.963 171.887 A 1.269 1.269 0 0 0 110.735 171.907 A 0.864 0.864 0 0 0 110.231 172.182 Q 110.055 172.377 109.997 172.676 A 1.697 1.697 0 0 0 109.967 173.004 Q 109.967 173.344 110.089 173.598 A 1.074 1.074 0 0 0 110.113 173.645 A 0.885 0.885 0 0 0 110.435 173.988 Q 110.66 174.124 110.949 174.124 A 1.269 1.269 0 0 0 111.171 174.105 A 0.871 0.871 0 0 0 111.683 173.828 A 0.912 0.912 0 0 0 111.792 173.679 Q 111.881 173.527 111.919 173.332 Z M 110.305 173.004 A 1.655 1.655 0 0 0 110.321 173.24 Q 110.356 173.484 110.471 173.634 A 0.536 0.536 0 0 0 110.82 173.839 A 0.812 0.812 0 0 0 110.957 173.85 A 0.759 0.759 0 0 0 111.157 173.825 A 0.528 0.528 0 0 0 111.444 173.635 A 0.702 0.702 0 0 0 111.554 173.422 Q 111.586 173.324 111.6 173.204 A 1.721 1.721 0 0 0 111.611 173.004 A 1.631 1.631 0 0 0 111.595 172.771 Q 111.56 172.527 111.444 172.379 A 0.538 0.538 0 0 0 111.11 172.179 A 0.824 0.824 0 0 0 110.953 172.165 A 0.778 0.778 0 0 0 110.759 172.188 A 0.521 0.521 0 0 0 110.469 172.376 A 0.676 0.676 0 0 0 110.364 172.579 Q 110.333 172.672 110.318 172.786 A 1.727 1.727 0 0 0 110.305 173.004 Z M 112.849 172.931 L 112.849 173.004 Q 112.849 173.39 112.958 173.59 A 0.493 0.493 0 0 0 113.001 173.654 A 0.474 0.474 0 0 0 113.241 173.817 Q 113.321 173.842 113.42 173.848 A 1.051 1.051 0 0 0 113.487 173.85 Q 113.766 173.85 113.925 173.624 A 0.79 0.79 0 0 0 114.033 173.393 Q 114.065 173.287 114.076 173.16 A 1.741 1.741 0 0 0 114.083 173 Q 114.083 172.596 113.925 172.381 Q 113.766 172.165 113.479 172.165 A 0.942 0.942 0 0 0 113.303 172.18 Q 113.205 172.199 113.13 172.24 A 0.432 0.432 0 0 0 113.001 172.348 Q 112.862 172.52 112.85 172.881 A 2.08 2.08 0 0 0 112.849 172.931 Z" id="top_labelLayer" stroke="#777777" fill="#777777" style="stroke:#777777;fill:#777777" vector-effect="non-scaling-stroke"/><path d="M 55.16 90.113 L 55.16 58.909 L 55.113 58.862 L 52.66 58.862 L 52.66 31.298 L 55.113 31.298 L 55.16 31.251 L 55.16 0.047 L 55.113 0 L 0.047 0 L 0 0.047 L 0 31.251 L 0.047 31.298 L 2.5 31.298 L 2.5 58.862 L 0.047 58.862 L 0 58.909 L 0 90.113 L 0.047 90.16 L 55.113 90.16 L 55.16 90.113 Z" id="back_outsideCutPath" stroke="#FF0000" stroke-width="0.1" style="stroke:#FF0000;stroke-width:0.1" vector-effect="non-scaling-stroke"/><path d="M 35.132 46.195 L 35.175 46.195 Q 35.407 45.866 35.881 45.333 L 37.788 43.313 L 38.849 43.313 L 36.457 45.829 L 39.016 49.217 L 37.933 49.217 L 35.849 46.427 L 35.175 47.008 L 35.175 49.217 L 34.292 49.217 L 34.292 40.835 L 35.175 40.835 L 35.175 45.279 Q 35.175 45.576 35.132 46.195 Z M 17.038 48.457 L 16.974 48.457 L 16.785 49.217 L 16.144 49.217 L 16.144 40.835 L 17.038 40.835 L 17.038 42.871 Q 17.038 43.555 16.995 44.1 L 17.038 44.1 A 2.033 2.033 0 0 1 18.522 43.238 A 3.054 3.054 0 0 1 18.891 43.216 A 2.733 2.733 0 0 1 19.66 43.319 A 2.046 2.046 0 0 1 20.698 44.011 Q 21.214 44.647 21.317 45.706 A 5.74 5.74 0 0 1 21.342 46.26 Q 21.342 47.714 20.693 48.519 A 2.117 2.117 0 0 1 19.189 49.31 A 3.033 3.033 0 0 1 18.891 49.325 Q 18.315 49.325 17.838 49.112 Q 17.361 48.899 17.038 48.457 Z M 27.198 49.217 L 26.535 49.217 L 26.357 48.377 L 26.314 48.377 Q 26.002 48.768 25.692 48.982 A 1.648 1.648 0 0 1 25.433 49.128 Q 24.994 49.325 24.337 49.325 A 2.744 2.744 0 0 1 23.779 49.271 Q 23.288 49.169 22.961 48.872 A 1.47 1.47 0 0 1 22.518 48.097 A 2.25 2.25 0 0 1 22.463 47.585 A 1.547 1.547 0 0 1 23.343 46.124 Q 24.049 45.749 25.323 45.71 L 26.325 45.678 L 26.325 45.312 A 2.568 2.568 0 0 0 26.3 44.94 Q 26.272 44.75 26.213 44.598 A 0.998 0.998 0 0 0 26.026 44.285 A 0.908 0.908 0 0 0 25.654 44.043 Q 25.41 43.954 25.07 43.954 A 2.911 2.911 0 0 0 24.4 44.038 Q 24.092 44.11 23.758 44.247 A 5.989 5.989 0 0 0 23.4 44.407 L 23.125 43.722 A 4.123 4.123 0 0 1 23.921 43.395 A 4.693 4.693 0 0 1 24.081 43.351 Q 24.601 43.216 25.124 43.216 Q 25.784 43.216 26.23 43.399 A 1.522 1.522 0 0 1 26.688 43.685 Q 27.088 44.052 27.174 44.768 A 3.518 3.518 0 0 1 27.198 45.188 L 27.198 49.217 Z M 32.977 43.512 L 32.703 44.272 A 3.978 3.978 0 0 0 32.271 44.128 A 4.751 4.751 0 0 0 32.056 44.075 A 3.694 3.694 0 0 0 31.775 44.023 Q 31.638 44.004 31.516 43.999 A 1.982 1.982 0 0 0 31.437 43.997 Q 29.839 43.997 29.66 45.808 A 4.941 4.941 0 0 0 29.638 46.292 Q 29.638 47.006 29.827 47.502 A 1.855 1.855 0 0 0 30.077 47.962 A 1.42 1.42 0 0 0 30.997 48.512 A 2.163 2.163 0 0 0 31.378 48.544 A 3.743 3.743 0 0 0 32.41 48.393 A 4.622 4.622 0 0 0 32.891 48.226 L 32.891 49.018 A 2.544 2.544 0 0 1 32.269 49.238 Q 31.982 49.302 31.647 49.319 A 4.904 4.904 0 0 1 31.399 49.325 A 3.342 3.342 0 0 1 30.586 49.231 A 2.266 2.266 0 0 1 29.414 48.536 A 2.586 2.586 0 0 1 28.876 47.548 Q 28.711 47.002 28.711 46.303 Q 28.711 45.23 29.085 44.511 A 2.465 2.465 0 0 1 29.425 44.013 Q 30.139 43.205 31.458 43.205 Q 31.884 43.205 32.31 43.297 A 4.463 4.463 0 0 1 32.558 43.357 Q 32.811 43.427 32.977 43.512 Z M 18.762 43.965 Q 17.846 43.965 17.442 44.49 Q 17.038 45.015 17.038 46.26 A 5.912 5.912 0 0 0 17.067 46.871 Q 17.132 47.487 17.337 47.862 A 1.349 1.349 0 0 0 17.453 48.04 Q 17.825 48.52 18.599 48.57 A 2.875 2.875 0 0 0 18.783 48.576 A 1.783 1.783 0 0 0 19.29 48.508 A 1.286 1.286 0 0 0 20.012 47.975 A 2.053 2.053 0 0 0 20.266 47.426 Q 20.416 46.935 20.416 46.249 Q 20.416 45.096 20.012 44.53 A 1.304 1.304 0 0 0 19.181 44.005 A 2.068 2.068 0 0 0 18.762 43.965 Z M 26.303 46.847 L 26.303 46.313 L 25.409 46.351 A 6.566 6.566 0 0 0 24.885 46.389 Q 24.367 46.449 24.043 46.593 A 1.373 1.373 0 0 0 23.871 46.682 A 0.954 0.954 0 0 0 23.416 47.375 A 1.412 1.412 0 0 0 23.4 47.596 Q 23.4 48.022 23.627 48.269 A 0.796 0.796 0 0 0 23.693 48.334 A 0.973 0.973 0 0 0 24.058 48.527 Q 24.203 48.57 24.375 48.582 A 2.011 2.011 0 0 0 24.515 48.587 A 2.462 2.462 0 0 0 25.047 48.533 Q 25.417 48.451 25.69 48.245 A 1.493 1.493 0 0 0 25.827 48.129 A 1.498 1.498 0 0 0 26.244 47.381 Q 26.303 47.137 26.303 46.847 Z" id="back_labelLayer" stroke="#777777" fill="#777777" style="stroke:#777777;fill:#777777" vector-effect="non-scaling-stroke"/><path d="M 80.82 90.113 L 80.82 59.022 L 83.273 59.022 L 83.32 58.975 L 83.32 31.185 L 83.273 31.138 L 80.82 31.138 L 80.82 0.047 L 80.773 0 L 60.707 0 L 60.66 0.047 L 60.66 31.138 L 58.207 31.138 L 58.16 31.185 L 58.16 58.975 L 58.207 59.022 L 60.66 59.022 L 60.66 90.113 L 60.707 90.16 L 80.773 90.16 L 80.82 90.113 Z" id="right_outsideCutPath" stroke="#FF0000" stroke-width="0.1" style="stroke:#FF0000;stroke-width:0.1" vector-effect="non-scaling-stroke"/><path d="M 73.869 46.387 L 73.461 46.387 L 73.461 44.645 A 1.153 1.153 0 0 0 73.448 44.464 Q 73.433 44.369 73.4 44.293 A 0.485 0.485 0 0 0 73.311 44.154 Q 73.19 44.022 72.957 43.997 A 1.081 1.081 0 0 0 72.842 43.992 Q 72.417 43.992 72.222 44.222 Q 72.043 44.434 72.028 44.891 A 2.633 2.633 0 0 0 72.026 44.979 L 72.026 46.387 L 71.618 46.387 L 71.618 42.564 L 72.026 42.564 L 72.026 43.721 A 3.669 3.669 0 0 1 72.024 43.862 Q 72.019 43.98 72.007 44.068 L 72.031 44.068 A 0.815 0.815 0 0 1 72.317 43.793 A 0.996 0.996 0 0 1 72.374 43.762 A 1.047 1.047 0 0 1 72.718 43.66 A 1.324 1.324 0 0 1 72.881 43.65 A 1.655 1.655 0 0 1 73.159 43.672 Q 73.45 43.721 73.622 43.885 A 0.71 0.71 0 0 1 73.797 44.16 Q 73.839 44.274 73.857 44.416 A 1.764 1.764 0 0 1 73.869 44.63 L 73.869 46.387 Z M 70.134 43.694 L 71.066 43.694 L 71.066 43.952 L 70.567 44.011 Q 70.636 44.097 70.69 44.236 A 0.785 0.785 0 0 1 70.736 44.423 A 1.008 1.008 0 0 1 70.744 44.549 A 0.935 0.935 0 0 1 70.701 44.839 A 0.756 0.756 0 0 1 70.473 45.181 Q 70.23 45.393 69.823 45.414 A 1.771 1.771 0 0 1 69.731 45.417 A 1.311 1.311 0 0 1 69.58 45.408 A 1.107 1.107 0 0 1 69.505 45.397 A 0.726 0.726 0 0 0 69.388 45.473 Q 69.328 45.521 69.293 45.577 A 0.307 0.307 0 0 0 69.245 45.743 A 0.211 0.211 0 0 0 69.256 45.813 Q 69.276 45.872 69.336 45.907 A 0.286 0.286 0 0 0 69.399 45.933 Q 69.466 45.952 69.567 45.958 A 1.551 1.551 0 0 0 69.648 45.96 L 70.125 45.96 Q 70.416 45.96 70.618 46.042 A 0.737 0.737 0 0 1 70.797 46.144 A 0.597 0.597 0 0 1 71.018 46.524 A 0.896 0.896 0 0 1 71.031 46.68 A 0.883 0.883 0 0 1 70.981 46.985 Q 70.897 47.215 70.672 47.361 A 1.223 1.223 0 0 1 70.357 47.504 Q 70.202 47.552 70.012 47.574 A 3.233 3.233 0 0 1 69.626 47.596 A 2.285 2.285 0 0 1 69.319 47.577 Q 69.164 47.556 69.037 47.511 A 0.948 0.948 0 0 1 68.811 47.399 Q 68.525 47.203 68.525 46.844 A 0.624 0.624 0 0 1 68.682 46.419 A 0.712 0.712 0 0 1 68.927 46.241 A 1.009 1.009 0 0 1 69.125 46.176 A 0.423 0.423 0 0 1 68.96 46.043 A 0.502 0.502 0 0 1 68.951 46.031 A 0.378 0.378 0 0 1 68.882 45.826 A 0.468 0.468 0 0 1 68.881 45.802 Q 68.881 45.655 68.96 45.544 Q 69.019 45.461 69.131 45.381 A 1.281 1.281 0 0 1 69.208 45.331 A 0.715 0.715 0 0 1 68.897 45.082 A 0.886 0.886 0 0 1 68.868 45.038 A 0.843 0.843 0 0 1 68.738 44.632 A 1.029 1.029 0 0 1 68.736 44.566 A 1.178 1.178 0 0 1 68.767 44.288 A 0.775 0.775 0 0 1 69.002 43.885 Q 69.231 43.678 69.625 43.65 A 1.801 1.801 0 0 1 69.754 43.645 A 1.563 1.563 0 0 1 69.96 43.658 A 1.191 1.191 0 0 1 70.134 43.694 Z M 75.945 46.051 L 75.945 46.363 A 0.401 0.401 0 0 1 75.898 46.381 Q 75.839 46.401 75.75 46.415 A 1.768 1.768 0 0 1 75.635 46.43 Q 75.58 46.436 75.532 46.436 A 1.047 1.047 0 0 1 75.518 46.436 Q 74.895 46.436 74.768 45.913 A 1.282 1.282 0 0 1 74.736 45.613 L 74.736 44.011 L 74.351 44.011 L 74.351 43.815 L 74.736 43.645 L 74.908 43.07 L 75.144 43.07 L 75.144 43.694 L 75.926 43.694 L 75.926 44.011 L 75.144 44.011 L 75.144 45.596 A 0.821 0.821 0 0 0 75.156 45.74 Q 75.181 45.881 75.26 45.969 A 0.379 0.379 0 0 0 75.493 46.093 A 0.545 0.545 0 0 0 75.577 46.1 Q 75.685 46.1 75.786 46.084 A 2.206 2.206 0 0 0 75.844 46.074 Q 75.901 46.063 75.94 46.052 A 0.609 0.609 0 0 0 75.945 46.051 Z M 67.085 43.675 L 67.029 44.053 Q 66.889 44.022 66.778 44.017 A 0.957 0.957 0 0 0 66.734 44.016 A 0.707 0.707 0 0 0 66.212 44.242 A 0.967 0.967 0 0 0 66.175 44.281 A 0.931 0.931 0 0 0 65.95 44.804 A 1.238 1.238 0 0 0 65.943 44.942 L 65.943 46.387 L 65.535 46.387 L 65.535 43.694 L 65.871 43.694 L 65.918 44.193 L 65.938 44.193 A 1.377 1.377 0 0 1 66.092 43.973 A 1.052 1.052 0 0 1 66.299 43.788 Q 66.51 43.645 66.763 43.645 A 1.872 1.872 0 0 1 66.931 43.652 A 1.367 1.367 0 0 1 67.085 43.675 Z M 67.997 43.694 L 67.997 46.387 L 67.589 46.387 L 67.589 43.694 L 67.997 43.694 Z M 69.994 46.326 L 69.505 46.326 A 0.938 0.938 0 0 0 69.336 46.34 Q 69.24 46.358 69.165 46.397 A 0.478 0.478 0 0 0 69.073 46.458 A 0.43 0.43 0 0 0 68.932 46.702 A 0.653 0.653 0 0 0 68.918 46.839 Q 68.918 47.043 69.078 47.155 A 0.479 0.479 0 0 0 69.102 47.171 A 0.653 0.653 0 0 0 69.263 47.24 Q 69.414 47.284 69.627 47.284 A 2.008 2.008 0 0 0 69.631 47.284 A 2.742 2.742 0 0 0 69.898 47.272 Q 70.167 47.245 70.335 47.161 A 0.677 0.677 0 0 0 70.391 47.13 A 0.595 0.595 0 0 0 70.529 47.015 A 0.446 0.446 0 0 0 70.638 46.714 A 0.552 0.552 0 0 0 70.628 46.604 Q 70.601 46.472 70.503 46.41 Q 70.368 46.326 69.994 46.326 Z M 69.139 44.557 A 0.796 0.796 0 0 0 69.156 44.724 Q 69.178 44.827 69.23 44.905 A 0.436 0.436 0 0 0 69.299 44.984 A 0.527 0.527 0 0 0 69.511 45.099 Q 69.592 45.123 69.688 45.128 A 1.05 1.05 0 0 0 69.744 45.129 Q 70.215 45.129 70.314 44.768 A 0.826 0.826 0 0 0 70.341 44.549 A 0.877 0.877 0 0 0 70.311 44.309 Q 70.234 44.04 69.96 43.968 A 0.887 0.887 0 0 0 69.736 43.942 A 0.856 0.856 0 0 0 69.562 43.959 Q 69.398 43.993 69.294 44.097 A 0.489 0.489 0 0 0 69.176 44.297 Q 69.139 44.409 69.139 44.557 Z M 67.56 42.89 A 0.452 0.452 0 0 0 67.554 42.964 Q 67.554 43.034 67.572 43.085 A 0.211 0.211 0 0 0 67.623 43.17 A 0.229 0.229 0 0 0 67.706 43.222 A 0.259 0.259 0 0 0 67.795 43.237 A 0.238 0.238 0 0 0 67.965 43.17 A 0.199 0.199 0 0 0 68.004 43.118 Q 68.021 43.085 68.029 43.042 A 0.422 0.422 0 0 0 68.036 42.964 Q 68.036 42.897 68.019 42.847 A 0.206 0.206 0 0 0 67.965 42.761 Q 67.894 42.694 67.795 42.694 A 0.311 0.311 0 0 0 67.775 42.695 A 0.236 0.236 0 0 0 67.623 42.759 Q 67.574 42.806 67.56 42.89 Z" id="right_labelLayer" stroke="#777777" fill="#777777" style="stroke:#777777;fill:#777777" vector-effect="non-scaling-stroke"/><path d="M 136.48 160.113 L 136.48 140.047 L 136.433 140 L 86.367 140 L 86.32 140.047 L 86.32 160.113 L 86.367 160.16 L 136.433 160.16 L 136.48 160.113 Z" id="bottom_outsideCutPath" stroke="#FF0000" stroke-width="0.1" style="stroke:#FF0000;stroke-width:0.1" vector-effect="non-scaling-stroke"/><path d="M 118.033 151.592 L 117.706 151.592 L 117.706 150.188 A 0.964 0.964 0 0 0 117.696 150.046 Q 117.673 149.892 117.596 149.801 Q 117.499 149.689 117.309 149.674 A 0.759 0.759 0 0 0 117.253 149.672 Q 117.039 149.672 116.904 149.759 A 0.433 0.433 0 0 0 116.802 149.848 A 0.54 0.54 0 0 0 116.711 150.013 Q 116.657 150.164 116.657 150.384 A 1.757 1.757 0 0 0 116.657 150.387 L 116.657 151.592 L 116.33 151.592 L 116.33 150.188 A 0.964 0.964 0 0 0 116.32 150.046 Q 116.297 149.892 116.219 149.801 A 0.343 0.343 0 0 0 116.062 149.699 Q 116.005 149.68 115.936 149.675 A 0.765 0.765 0 0 0 115.875 149.672 A 0.812 0.812 0 0 0 115.707 149.689 Q 115.525 149.727 115.425 149.856 Q 115.296 150.023 115.284 150.383 A 2.275 2.275 0 0 0 115.282 150.46 L 115.282 151.592 L 114.956 151.592 L 114.956 149.434 L 115.221 149.434 L 115.274 149.73 L 115.29 149.73 A 0.642 0.642 0 0 1 115.551 149.483 A 0.776 0.776 0 0 1 115.858 149.397 A 0.937 0.937 0 0 1 115.928 149.395 Q 116.434 149.395 116.59 149.761 L 116.605 149.761 A 0.682 0.682 0 0 1 116.862 149.506 A 0.82 0.82 0 0 1 116.885 149.493 A 0.827 0.827 0 0 1 117.188 149.401 A 1.031 1.031 0 0 1 117.302 149.395 A 1.136 1.136 0 0 1 117.508 149.412 Q 117.623 149.433 117.712 149.48 A 0.539 0.539 0 0 1 117.851 149.583 A 0.563 0.563 0 0 1 117.971 149.78 Q 118.004 149.868 118.019 149.976 A 1.499 1.499 0 0 1 118.033 150.184 L 118.033 151.592 Z M 105.094 151.314 L 105.07 151.314 L 105.002 151.592 L 104.767 151.592 L 104.767 148.529 L 105.094 148.529 L 105.094 149.273 A 6.814 6.814 0 0 1 105.09 149.503 Q 105.086 149.619 105.078 149.722 L 105.094 149.722 A 0.743 0.743 0 0 1 105.636 149.407 A 1.116 1.116 0 0 1 105.771 149.399 A 0.999 0.999 0 0 1 106.052 149.436 A 0.748 0.748 0 0 1 106.432 149.689 A 0.963 0.963 0 0 1 106.601 150.014 Q 106.642 150.148 106.658 150.309 A 2.098 2.098 0 0 1 106.667 150.511 A 1.916 1.916 0 0 1 106.642 150.834 Q 106.612 151.005 106.549 151.143 A 0.919 0.919 0 0 1 106.43 151.337 A 0.774 0.774 0 0 1 105.88 151.626 A 1.108 1.108 0 0 1 105.771 151.631 A 0.991 0.991 0 0 1 105.522 151.601 A 0.863 0.863 0 0 1 105.386 151.554 Q 105.212 151.476 105.094 151.314 Z M 110.666 151.322 L 110.666 151.572 A 0.321 0.321 0 0 1 110.628 151.587 Q 110.587 151.601 110.529 151.611 A 1.222 1.222 0 0 1 110.509 151.615 Q 110.406 151.631 110.323 151.631 A 0.854 0.854 0 0 1 110.072 151.597 Q 109.697 151.482 109.697 150.972 L 109.697 149.688 L 109.388 149.688 L 109.388 149.531 L 109.697 149.395 L 109.835 148.934 L 110.024 148.934 L 110.024 149.434 L 110.65 149.434 L 110.65 149.688 L 110.024 149.688 L 110.024 150.958 A 0.658 0.658 0 0 0 110.033 151.074 Q 110.045 151.137 110.07 151.187 A 0.317 0.317 0 0 0 110.116 151.257 A 0.304 0.304 0 0 0 110.303 151.357 A 0.437 0.437 0 0 0 110.37 151.362 A 1.073 1.073 0 0 0 110.528 151.35 A 0.989 0.989 0 0 0 110.538 151.349 Q 110.615 151.337 110.661 151.323 A 0.493 0.493 0 0 0 110.666 151.322 Z M 112.089 151.322 L 112.089 151.572 A 0.321 0.321 0 0 1 112.051 151.587 Q 112.01 151.601 111.952 151.611 A 1.222 1.222 0 0 1 111.933 151.615 Q 111.829 151.631 111.746 151.631 A 0.854 0.854 0 0 1 111.495 151.597 Q 111.12 151.482 111.12 150.972 L 111.12 149.688 L 110.811 149.688 L 110.811 149.531 L 111.12 149.395 L 111.258 148.934 L 111.447 148.934 L 111.447 149.434 L 112.073 149.434 L 112.073 149.688 L 111.447 149.688 L 111.447 150.958 A 0.658 0.658 0 0 0 111.457 151.074 Q 111.468 151.137 111.493 151.187 A 0.317 0.317 0 0 0 111.54 151.257 A 0.304 0.304 0 0 0 111.726 151.357 A 0.437 0.437 0 0 0 111.794 151.362 A 1.073 1.073 0 0 0 111.951 151.35 A 0.989 0.989 0 0 0 111.961 151.349 Q 112.038 151.337 112.085 151.323 A 0.493 0.493 0 0 0 112.089 151.322 Z M 109.07 150.839 A 1.688 1.688 0 0 0 109.1 150.511 Q 109.1 150.301 109.056 150.127 A 1.018 1.018 0 0 0 108.834 149.696 A 0.856 0.856 0 0 0 108.437 149.44 A 1.098 1.098 0 0 0 108.114 149.395 A 1.269 1.269 0 0 0 107.886 149.414 A 0.864 0.864 0 0 0 107.382 149.689 Q 107.207 149.885 107.148 150.183 A 1.697 1.697 0 0 0 107.118 150.511 Q 107.118 150.852 107.24 151.106 A 1.074 1.074 0 0 0 107.264 151.152 A 0.885 0.885 0 0 0 107.587 151.495 Q 107.811 151.631 108.1 151.631 A 1.269 1.269 0 0 0 108.322 151.613 A 0.871 0.871 0 0 0 108.835 151.335 A 0.912 0.912 0 0 0 108.943 151.186 Q 109.032 151.034 109.07 150.839 Z M 114.353 150.839 A 1.688 1.688 0 0 0 114.383 150.511 Q 114.383 150.301 114.338 150.127 A 1.018 1.018 0 0 0 114.116 149.696 A 0.856 0.856 0 0 0 113.719 149.44 A 1.098 1.098 0 0 0 113.396 149.395 A 1.269 1.269 0 0 0 113.168 149.414 A 0.864 0.864 0 0 0 112.664 149.689 Q 112.489 149.885 112.43 150.183 A 1.697 1.697 0 0 0 112.4 150.511 Q 112.4 150.852 112.522 151.106 A 1.074 1.074 0 0 0 112.546 151.152 A 0.885 0.885 0 0 0 112.869 151.495 Q 113.093 151.631 113.383 151.631 A 1.269 1.269 0 0 0 113.604 151.613 A 0.871 0.871 0 0 0 114.117 151.335 A 0.912 0.912 0 0 0 114.225 151.186 Q 114.314 151.034 114.353 150.839 Z M 107.457 150.511 A 1.655 1.655 0 0 0 107.472 150.748 Q 107.508 150.991 107.622 151.141 A 0.536 0.536 0 0 0 107.971 151.347 A 0.812 0.812 0 0 0 108.108 151.358 A 0.759 0.759 0 0 0 108.309 151.333 A 0.528 0.528 0 0 0 108.596 151.142 A 0.702 0.702 0 0 0 108.705 150.929 Q 108.737 150.831 108.751 150.711 A 1.721 1.721 0 0 0 108.762 150.511 A 1.631 1.631 0 0 0 108.746 150.279 Q 108.711 150.035 108.596 149.886 A 0.538 0.538 0 0 0 108.261 149.687 A 0.824 0.824 0 0 0 108.104 149.672 A 0.778 0.778 0 0 0 107.911 149.695 A 0.521 0.521 0 0 0 107.62 149.883 A 0.676 0.676 0 0 0 107.515 150.086 Q 107.484 150.179 107.469 150.293 A 1.727 1.727 0 0 0 107.457 150.511 Z M 112.739 150.511 A 1.655 1.655 0 0 0 112.754 150.748 Q 112.79 150.991 112.904 151.141 A 0.536 0.536 0 0 0 113.253 151.347 A 0.812 0.812 0 0 0 113.39 151.358 A 0.759 0.759 0 0 0 113.591 151.333 A 0.528 0.528 0 0 0 113.878 151.142 A 0.702 0.702 0 0 0 113.987 150.929 Q 114.019 150.831 114.033 150.711 A 1.721 1.721 0 0 0 114.044 150.511 A 1.631 1.631 0 0 0 114.029 150.279 Q 113.993 150.035 113.878 149.886 A 0.538 0.538 0 0 0 113.543 149.687 A 0.824 0.824 0 0 0 113.386 149.672 A 0.778 0.778 0 0 0 113.193 149.695 A 0.521 0.521 0 0 0 112.902 149.883 A 0.676 0.676 0 0 0 112.797 150.086 Q 112.766 150.179 112.752 150.293 A 1.727 1.727 0 0 0 112.739 150.511 Z M 105.368 149.754 A 0.435 0.435 0 0 0 105.242 149.864 A 0.559 0.559 0 0 0 105.161 150.019 Q 105.106 150.172 105.096 150.405 A 2.518 2.518 0 0 0 105.094 150.511 Q 105.094 150.897 105.203 151.097 A 0.493 0.493 0 0 0 105.246 151.162 A 0.474 0.474 0 0 0 105.486 151.324 Q 105.567 151.349 105.665 151.356 A 1.051 1.051 0 0 0 105.732 151.358 A 0.651 0.651 0 0 0 105.917 151.333 A 0.47 0.47 0 0 0 106.181 151.138 Q 106.286 150.981 106.316 150.727 A 1.873 1.873 0 0 0 106.328 150.507 Q 106.328 150.086 106.181 149.879 Q 106.033 149.672 105.724 149.672 Q 105.507 149.672 105.368 149.754 Z" id="bottom_labelLayer" stroke="#777777" fill="#777777" style="stroke:#777777;fill:#777777" vector-effect="non-scaling-stroke"/></g></svg>