0
SECTION
2
HEADER
9
$INSUNITS
70
4
9
$ACADVER
1
AC1014
9
$HANDSEED
5
FFFF
0
ENDSEC
0
SECTION
2
TABLES
0
TABLE
2
VPORT
5
8
100
AcDbSymbolTable
0
ENDTAB
0
TABLE
2
LTYPE
5
5
100
AcDbSymbolTable
0
LTYPE
5
14
100
AcDbSymbolTableRecord
100
AcDbLinetypeTableRecord
2
BYBLOCK
70
0
0
LTYPE
5
15
100
AcDbSymbolTableRecord
100
AcDbLinetypeTableRecord
2
BYLAYER
70
0
0
ENDTAB
0
TABLE
2
LAYER
5
2
100
AcDbSymbolTable
70
2
0
LAYER
5
50
100
AcDbSymbolTableRecord
100
AcDbLayerTableRecord
2
0
70
0
6
CONTINUOUS
0
ENDTAB
0
TABLE
2
STYLE
5
3
100
AcDbSymbolTable
70
1
0
STYLE
5
11
100
AcDbSymbolTableRecord
100
AcDbTextStyleTableRecord
2
STANDARD
70
0
0
ENDTAB
0
TABLE
2
VIEW
5
6
100
AcDbSymbolTable
70
0
0
ENDTAB
0
TABLE
2
UCS
5
7
100
AcDbSymbolTable
70
0
0
ENDTAB
0
TABLE
2
APPID
5
9
100
AcDbSymbolTable
70
2
0
APPID
5
12
100
AcDbSymbolTableRecord
100
AcDbRegAppTableRecord
2
ACAD
70
0
0
ENDTAB
0
TABLE
2
DIMSTYLE
5
A
100
AcDbSymbolTable
70
1
0
ENDTAB
0
TABLE
2
BLOCK_RECORD
5
1
100
AcDbSymbolTable
70
1
0
BLOCK_RECORD
5
1F
100
AcDbSymbolTableRecord
100
AcDbBlockTableRecord
2
*MODEL_SPACE
0
BLOCK_RECORD
5
1B
100
AcDbSymbolTableRecord
100
AcDbBlockTableRecord
2
*PAPER_SPACE
0
ENDTAB
0
ENDSEC
0
SECTION
2
BLOCKS
0
BLOCK
5
20
100
AcDbEntity
100
AcDbBlockBegin
2
*MODEL_SPACE
0
ENDBLK
5
21
100
AcDbEntity
100
AcDbBlockEnd
0
BLOCK
5
1C
100
AcDbEntity
100
AcDbBlockBegin
2
*PAPER_SPACE
0
ENDBLK
5
1D
100
AcDbEntity
100
AcDbBlockEnd
0
ENDSEC
0
SECTION
2
ENTITIES
0
LWPOLYLINE
5
100
100
AcDbEntity
8
0
100
AcDbPolyline
90
4
70
1
43
0.0
10
300
20
230
10
0
20
230
10
0
20
0
10
300
20
0
0
LINE
5
101
100
AcDbEntity
8
0
100
AcDbLine
10
10
20
220
30
0
11
150
21
220
31
0
0
LINE
5
102
100
AcDbEntity
8
0
100
AcDbLine
10
10
20
220
30
0
11
30
21
210
31
0
0
LINE
5
103
100
AcDbEntity
8
0
100
AcDbLine
10
30
20
210
30
0
11
53.87716502468561
21
204.0307087438286
31
0
0
LINE
5
104
100
AcDbEntity
8
0
100
AcDbLine
10
81.751434393698389
20
188.24856560630161
30
0
11
81.964315464176636
21
188.03568453582332
31
0
0
LINE
5
105
100
AcDbEntity
8
0
100
AcDbLine
10
91.782398649198257
20
168.7764752874206
30
0
11
92.646899205122125
21
163.33283148875947
31
0
0
LINE
5
106
100
AcDbEntity
8
0
100
AcDbLine
10
91.510637879545754
20
137.37317797416321
30
0
11
91.791894363379441
21
138.49820390949796
31
0
0
LINE
5
107
100
AcDbEntity
8
0
100
AcDbLine
10
93.298093605014799
20
124.71945178469448
30
0
11
99.860079472176693
21
111.56566054834155
31
0
0
LINE
5
108
100
AcDbEntity
8
0
100
AcDbLine
10
98.9965409905424
20
106.25952024134578
30
0
11
88.501189776857032
21
95.764169027660401
31
0
0
LINE
5
109
100
AcDbEntity
8
0
100
AcDbLine
10
87.944100045268897
20
92.291508804815408
30
0
11
91.709554414495386
21
84.828226565724719
31
0
0
LINE
5
110
100
AcDbEntity
8
0
100
AcDbLine
10
91.519418141862147
20
82.351667180644839
30
0
11
88.129296317759028
21
77.6081462824976
31
0
0
LINE
5
111
100
AcDbEntity
8
0
100
AcDbLine
10
88.593549905953495
20
74.818080224883815
30
0
11
90.084648974976474
21
73.752414529646941
31
0
0
LINE
5
112
100
AcDbEntity
8
0
100
AcDbLine
10
91.245282945462634
20
66.777249385612464
30
0
11
89.66485010789107
21
64.565878649658998
31
0
0
LINE
5
113
100
AcDbEntity
8
0
100
AcDbLine
10
89.66485010789107
20
64.565878649658998
30
0
11
88.753894963665743
21
57.939177074583597
31
0
0
LINE
5
114
100
AcDbEntity
8
0
100
AcDbLine
10
75.24798053530246
20
39.023758129578063
30
0
11
52.267211446279219
21
27.429256594956939
31
0
0
ARC
5
115
100
AcDbEntity
8
0
100
AcDbCircle
10
39.325027522505607
20
145.82215873510862
30
0
40
60.000000000000036
210
0
220
-0
230
1
100
AcDbArc
50
45.000000000000135
51
75.963756532073518
0
ARC
5
116
100
AcDbEntity
8
0
100
AcDbCircle
10
57.215578122648445
20
163.28694719429473
30
0
40
34.999999999998913
210
0
220
-0
230
1
100
AcDbArc
50
9.0237381590004855
51
45.000000000000462
0
ARC
5
117
100
AcDbEntity
8
0
100
AcDbCircle
10
28.451375370099168
20
153.13799360152476
30
0
40
64.999999999999986
210
-0
220
0
230
1
100
AcDbArc
50
-14.036243467926381
51
9.023738159001093
0
ARC
5
118
100
AcDbEntity
8
0
100
AcDbCircle
10
111.19474436628599
20
133.6474914087714
30
0
40
19.999999999999883
210
0
220
0
230
1
100
AcDbArc
50
165.96375653207377
51
206.51307205988792
0
ARC
5
119
100
AcDbEntity
8
0
100
AcDbCircle
10
95.74384979708438
20
109.51221143480387
30
0
40
4.5999999999999126
210
-0
220
0
230
1
100
AcDbArc
50
-45.000000000000604
51
26.513072059888149
0
ARC
5
120
100
AcDbEntity
8
0
100
AcDbCircle
10
90.622510120416678
20
93.642848684100755
30
0
40
2.9999999999999942
210
0
220
0
230
1
100
AcDbArc
50
135
51
206.77234264850793
0
ARC
5
121
100
AcDbEntity
8
0
100
AcDbCircle
10
89.566826354377227
20
83.747154662296438
30
0
40
2.3999999999999697
210
-0
220
0
230
1
100
AcDbArc
50
-35.552812205917355
51
26.772342648508687
0
ARC
5
122
100
AcDbEntity
8
0
100
AcDbCircle
10
89.756456140663161
20
76.445240047787934
30
0
40
2.0000000000000027
210
0
220
0
230
1
100
AcDbArc
50
144.44718779408319
51
234.44718779408296
0
ARC
5
123
100
AcDbEntity
8
0
100
AcDbCircle
10
87.17738338820233
20
69.684514972386623
30
0
40
4.9999999999999858
210
-0
220
0
230
1
100
AcDbArc
50
-35.55281220591695
51
54.44718779408327
0
ARC
5
124
100
AcDbEntity
8
0
100
AcDbCircle
10
63.986814874591147
20
61.343842089142704
30
0
40
24.999999999999964
210
-0
220
0
230
1
100
AcDbArc
50
296.7723426485083
51
352.17275915860051
0
LINE
5
125
100
AcDbEntity
8
0
100
AcDbLine
10
150
20
10
30
0
11
150
21
0
31
0
0
LINE
5
126
100
AcDbEntity
8
0
100
AcDbLine
10
150
20
0
30
0
11
105.93078194500677
21
7.3448696758322107
31
0
0
LINE
5
127
100
AcDbEntity
8
0
100
AcDbLine
10
75.33806602518176
20
16.772534424843741
30
0
11
52.267211446279219
21
27.429256594956939
31
0
0
ARC
5
128
100
AcDbEntity
8
0
100
AcDbCircle
10
125.65866042165212
20
125.7121405357
30
0
40
120.0000000000108
210
0
220
0
230
1
100
AcDbArc
50
245.20718219049596
51
260.53767779197403
0
LINE
5
129
100
AcDbEntity
8
0
100
AcDbLine
10
150
20
0
30
0
11
194.06921805499323
21
7.3448696758322285
31
0
0
ARC
5
130
100
AcDbEntity
8
0
100
AcDbCircle
10
174.34133957834788
20
125.7121405357
30
0
40
120.00000000001079
210
0
220
0
230
1
100
AcDbArc
50
279.46232220802602
51
294.79281780950396
0
LINE
5
131
100
AcDbEntity
8
0
100
AcDbLine
10
224.66193397481823
20
16.772534424843748
30
0
11
247.73278855372075
21
27.429256594956932
31
0
0
LINE
5
132
100
AcDbEntity
8
0
100
AcDbLine
10
224.75201946469753
20
39.02375812957807
30
0
11
247.73278855372075
21
27.429256594956932
31
0
0
ARC
5
133
100
AcDbEntity
8
0
100
AcDbCircle
10
236.01318512540885
20
61.343842089142697
30
0
40
24.999999999999947
210
0
220
0
230
1
100
AcDbArc
50
187.82724084139949
51
243.22765735149167
0
LINE
5
134
100
AcDbEntity
8
0
100
AcDbLine
10
210.33514989210892
20
64.565878649658998
30
0
11
211.24610503633426
21
57.93917707458359
31
0
0
LINE
5
135
100
AcDbEntity
8
0
100
AcDbLine
10
208.75471705453737
20
66.777249385612464
30
0
11
210.33514989210892
21
64.565878649658998
31
0
0
ARC
5
136
100
AcDbEntity
8
0
100
AcDbCircle
10
212.82261661179768
20
69.684514972386623
30
0
40
4.9999999999999796
210
0
220
0
230
1
100
AcDbArc
50
125.55281220591675
51
215.55281220591684
0
LINE
5
137
100
AcDbEntity
8
0
100
AcDbLine
10
211.40645009404651
20
74.818080224883801
30
0
11
209.91535102502354
21
73.752414529646941
31
0
0
ARC
5
138
100
AcDbEntity
8
0
100
AcDbCircle
10
210.24354385933685
20
76.445240047787948
30
0
40
2.0000000000000173
210
0
220
0
230
1
100
AcDbArc
50
-54.44718779408371
51
35.552812205916837
0
LINE
5
139
100
AcDbEntity
8
0
100
AcDbLine
10
208.48058185813784
20
82.351667180644839
30
0
11
211.87070368224099
21
77.608146282497614
31
0
0
ARC
5
140
100
AcDbEntity
8
0
100
AcDbCircle
10
210.43317364562279
20
83.747154662296438
30
0
40
2.3999999999999595
210
0
220
0
230
1
100
AcDbArc
50
153.2276573514915
51
215.55281220591698
0
LINE
5
141
100
AcDbEntity
8
0
100
AcDbLine
10
212.0558999547311
20
92.291508804815408
30
0
11
208.29044558550461
21
84.828226565724719
31
0
0
ARC
5
142
100
AcDbEntity
8
0
100
AcDbCircle
10
209.37748987958332
20
93.642848684100755
30
0
40
3.0000000000000209
210
0
220
0
230
1
100
AcDbArc
50
-26.772342648507884
51
44.999999999999808
0
LINE
5
143
100
AcDbEntity
8
0
100
AcDbLine
10
201.00345900945763
20
106.25952024134578
30
0
11
211.49881022314298
21
95.764169027660401
31
0
0
ARC
5
144
100
AcDbEntity
8
0
100
AcDbCircle
10
204.25615020291562
20
109.51221143480387
30
0
40
4.5999999999999179
210
0
220
0
230
1
100
AcDbArc
50
153.48692794011188
51
225.00000000000085
0
LINE
5
145
100
AcDbEntity
8
0
100
AcDbLine
10
206.7019063949852
20
124.71945178469448
30
0
11
200.13992052782331
21
111.56566054834155
31
0
0
ARC
5
146
100
AcDbEntity
8
0
100
AcDbCircle
10
188.80525563371401
20
133.6474914087714
30
0
40
19.999999999999922
210
0
220
0
230
1
100
AcDbArc
50
-26.513072059887925
51
14.036243467926219
0
LINE
5
147
100
AcDbEntity
8
0
100
AcDbLine
10
208.48936212045425
20
137.37317797416321
30
0
11
208.20810563662059
21
138.49820390949796
31
0
0
ARC
5
148
100
AcDbEntity
8
0
100
AcDbCircle
10
271.54862462990081
20
153.13799360152476
30
0
40
64.999999999999943
210
0
220
0
230
1
100
AcDbArc
50
170.97626184099892
51
194.03624346792643
0
LINE
5
149
100
AcDbEntity
8
0
100
AcDbLine
10
208.21760135080177
20
168.7764752874206
30
0
11
207.35310079487789
21
163.33283148875947
31
0
0
ARC
5
150
100
AcDbEntity
8
0
100
AcDbCircle
10
242.78442187735155
20
163.28694719429473
30
0
40
34.999999999998927
210
0
220
0
230
1
100
AcDbArc
50
134.99999999999955
51
170.97626184099946
0
LINE
5
151
100
AcDbEntity
8
0
100
AcDbLine
10
218.24856560630161
20
188.24856560630161
30
0
11
218.03568453582335
21
188.03568453582332
31
0
0
ARC
5
152
100
AcDbEntity
8
0
100
AcDbCircle
10
260.67497247749441
20
145.82215873510862
30
0
40
60.000000000000064
210
0
220
0
230
1
100
AcDbArc
50
104.03624346792651
51
134.99999999999986
0
LINE
5
153
100
AcDbEntity
8
0
100
AcDbLine
10
270
20
210
30
0
11
246.12283497531439
21
204.0307087438286
31
0
0
LINE
5
154
100
AcDbEntity
8
0
100
AcDbLine
10
290
20
220
30
0
11
270
21
210
31
0
0
LINE
5
155
100
AcDbEntity
8
0
100
AcDbLine
10
290
20
220
30
0
11
150
21
220
31
0
0
ENDSEC
0
SECTION
2
OBJECTS
0
DICTIONARY
5
C
100
AcDbDictionary
3
ACAD_GROUP
350
D
3
ACAD_MLINESTYLE
350
17
0
DICTIONARY
5
D
100
AcDbDictionary
0
DICTIONARY
5
1A
330
C
100
AcDbDictionary
0
DICTIONARY
5
17
100
AcDbDictionary
0
ENDSEC
0
EOF
